<svg xmlns="http://www.w3.org/2000/svg" viewBox="0 0 1200 600" font-family="'PingFang SC', 'Hiragino Sans GB', 'Microsoft YaHei', sans-serif">
	<defs>
		<pattern id="grid" width="40" height="40" patternUnits="userSpaceOnUse">
			<path d="M40 0H0V40" fill="none" stroke="#2a3050" stroke-width="1" opacity="0.35" />
		</pattern>
		<radialGradient id="glow" cx="0.85" cy="0.75" r="0.75">
			<stop offset="0" stop-color="#ff7b54" stop-opacity="0.3" />
			<stop offset="1" stop-color="#ff7b54" stop-opacity="0" />
		</radialGradient>
	</defs>
	<rect width="1200" height="600" fill="#151827" />
	<rect width="1200" height="600" fill="url(#grid)" />
	<rect width="1200" height="600" fill="url(#glow)" />
	<g transform="translate(950 130) rotate(38)" opacity="0.85">
		<path d="M0 -46 C14 -22 20 6 20 30 L0 52 L-20 30 C-20 6 -14 -22 0 -46 Z" fill="none" stroke="#ff7b54" stroke-width="4" />
		<circle cx="0" cy="-2" r="9" fill="#ff7b54" />
		<path d="M-20 30 C-34 36 -40 50 -42 64 C-30 60 -20 54 -14 44 Z" fill="#ff7b54" opacity="0.65" />
		<path d="M20 30 C34 36 40 50 42 64 C30 60 20 54 14 44 Z" fill="#ff7b54" opacity="0.65" />
	</g>
	<rect x="96" y="196" width="72" height="10" rx="5" fill="#ff7b54" />
	<text x="96" y="300" font-size="76" font-weight="700" fill="#f2f4fb">免费搭一个博客</text>
	<text x="96" y="366" font-size="30" fill="#9aa4c4">Astro + GitHub Pages · 一次配置,push 即发布</text>
	<text x="96" y="470" font-size="24" fill="#5f6a8f" font-family="Consolas, 'Courier New', monospace">$ npm create astro@latest -- --template blog</text>
	<text x="96" y="540" font-size="22" fill="#495172" font-family="Consolas, 'Courier New', monospace">WuhuKaitou · blog</text>
</svg>
